/* XPM */
static char *result[] = {
/* columns rows colors chars-per-pixel */
"60 60 5 1 ",
"  c #552F87",
". c #9F51F7",
"X c #DC8BF7",
"o c white",
"O c None",
/* pixels */
"OOOOOOOOOOOOOOOOOOOOOOOOOOOOOOOOOOOOOOOOOOOOOOOOOOOOOOOOOOOO",
"OOOOOOOOOOOOOOOOOOOOOOOOOOOOOOOOOOOOOOOOOOOOOOOOOOOOOOOOOOOO",
"OOOOOOOOOOOOOOOOOOOOOOOOOOOOOOOOOOOOOOOOOOOOOOOOOOOOOOOOOOOO",
"OOOOOOOOOOOOOOOOOOOOOOOOOOOOOOOOOOOOOOOOOOOOOOOOOOOOOOOOOOOO",
"OOOOOOOOOOOOOOOOOOOOOOOOOOOOOOOOOOOOOOOOOOOOOOOOOOOOOOOOOOOO",
"OOOOOOOOOOOOOOOOOOOOOOOOOOOOOOOOOOOOOOOOOOOOOOOOOOOOOOOOOOOO",
"OOOOOOOOOOOOOOOOOOOOOOOOOOOOOOOOOOOOOOOOOOOOOOOOOOOOOOOOOOOO",
"OOOOOOOOOOOOOOOOOOOOOOOOOOOOOOOOOOOOOOOOOOOOOOOOOOOOOOOOOOOO",
"OOOOOOOOOOOOOOOOOOOOOOOOOOOOOOOOOOOOOOOOOOOOOOOOOOOOOOOOOOOO",
"OOOOOOOOOOOOOOOOOOOOOOOOOOOOOOOOOOOOOOOOOOOOOOOOOOOOOOOOOOOO",
"OOOOOOOOOOOOOOOOOOOOOOOOOOOOOOOOOOOOOOOOOOOOOOOOOOOOOOOOOOOO",
"OOOOOOOOOOOOOOOOOOOOOOOOOOOOOOOOOOOOOOOOOOOOOOOOOOOOOOOOOOOO",
"OOOOOOOOOOOOOOOOOOOOOOOOOOOOOOOOOOOOOOOOOOOOOOOOOOOOOOOOOOOO",
"OOOOOOOOOOOOOOOOOOOOOOOOOOOOOOOOOOOOOOOOOOOOOOOOOOOOOOOOOOOO",
"OOOOOOOOOOOOOOOOOOOOOOOOOOOOOOOOOOOOOOOOOOOOOOOOOOOOOOOOOOOO",
"OOOOOOOOOOOOOOOOOOOOOOOOOOOOOOOOOOOOOOOOOOOOOOOOOOOOOOOOOOOO",
"OOOOOOOOOOOOOOOOOOOOOOOOO   OOOOOOOOOOOOOOOOOOOOOOOOOOOOOOOO",
"OOOOOOOOOOOOOOOOOOOOOOO ....  OOO OOOOOOOOOOOOOOOOOOOOOOOOOO",
"OOOOOOOOOOOOOOOOOOOOOOO.... .. O   OO OOOOOOOOOOOOOOOOOOOOOO",
"OOOOOOOOOOOOOOOOOOOO.. .. ....  .. .. OOOOOOOOOOOOOOOOOOOOOO",
"OOOOOOOOOOOOOOOOOOO... ........ .o... OOOOOOOOOOOOOOOOOOOOOO",
"OOOOOOOOOOOOOOOOOOO....   .... XX .... OOOOOOOOOOOOOOOOOOOOO",
"OOOOOOOOOOOOOOOOOOO  ..  XoooooXX o ....OOOOOOOOOOOOOOOOOOOO",
"OOOOOOOOOOOOOOOOOO .. . XoooXXooXXo.....OOOOOOOOOOOOOOOOOOOO",
"OOOOOOOOOOOOOOOO  ..XX XoooXXXXooo  ... OOOOOOOOOOOOOOOOOOOO",
"OOOOOOOOOOOOOOO.. .XoXXoXoooooXooXXXXo.. OOOOOOOOOOOOOOOOOOO",
"OOOOOOOOOOOOOOO. ..ooXXoooooooooXoXXXXo..OOOOOOOOOOOOOOOOOOO",
"OOOOOOOOOOOOOO.. ..XXXXXXooooooooXXXXXoo. OOOOOOOOOOOOOOOOOO",
"OOOOOOOOOOOOO .....XXXXXXooooooooXoXXXoo..OOOOOOOOOOOOOOOOOO",
"OOOOOOOOOOOOO ... .XXoXXXXoooooooXXXXX o..OOOOOOOOOOOOOOOOOO",
"OOOOOOOOOOOOO .. ...  XXXXXXooXoooXXoooo..OOOOOOOOOOOOOOOOOO",
"OOOOOOOOOOOOOO.....   XXXooXooXooXXXXoo ..OOOOOOOOOOOOOOOOOO",
"OOOOOOOOOOOOOO ... .  ooXoXXXXXoXXXXXoo ..OOOOOOOOOOOOOOOOOO",
"OOOOOOOOOOOOOOO .. ...XXXXXXXXoXoXXXoXo.. OOOOOOOOOOOOOOOOOO",
"OOOOOOOOOOOOOOOO.. ...XXoXXXXXXooXXXoX   .OOOOOOOOOOOOOOOOOO",
"OOOOOOOOOOOOOOOOO... .. .oooXooo XXo .. OOOOOOOOOOOOOOOOOOOO",
"OOOOOOOOOOOOOOOOO..  ...  .. ooo XXo . OOOOOOOOOOOOOOOOOOOOO",
"OOOOOOOOOOOOOOOOOO.  ..  ...ooo  ..  OOOOOOOOOOOOOOOOOOOOOOO",
"OOOOOOOOOOOOOOOOOOO..  .... ... ... OOOOOOOOOOOOOOOOOOOOOOOO",
"OOOOOOOOOOOOOOOOOOO... .... ... ... OOOOOOOOOOOOOOOOOOOOOOOO",
"OOOOOOOOOOOOOOOOOOO ..   ....... .. OOOOOOOOOOOOOOOOOOOOOOOO",
"OOOOOOOOOOOOOOOOOOOO  ........ OOOOOOOOOOOOOOOOOOOOOOOOOOOOO",
"OOOOOOOOOOOOOOOOOOOOOOO.   . OOOOOOOOOOOOOOOOOOOOOOOOOOOOOOO",
"OOOOOOOOOOOOOOOOOOOOOOOOOOOOOOOOOOOOOOOOOOOOOOOOOOOOOOOOOOOO",
"OOOOOOOOOOOOOOOOOOOOOOOOOOOOOOOOOOOOOOOOOOOOOOOOOOOOOOOOOOOO",
"OOOOOOOOOOOOOOOOOOOOOOOOOOOOOOOOOOOOOOOOOOOOOOOOOOOOOOOOOOOO",
"OOOOOOOOOOOOOOOOOOOOOOOOOOOOOOOOOOOOOOOOOOOOOOOOOOOOOOOOOOOO",
"OOOOOOOOOOOOOOOOOOOOOOOOOOOOOOOOOOOOOOOOOOOOOOOOOOOOOOOOOOOO",
"OOOOOOOOOOOOOOOOOOOOOOOOOOOOOOOOOOOOOOOOOOOOOOOOOOOOOOOOOOOO",
"OOOOOOOOOOOOOOOOOOOOOOOOOOOOOOOOOOOOOOOOOOOOOOOOOOOOOOOOOOOO",
"OOOOOOOOOOOOOOOOOOOOOOOOOOOOOOOOOOOOOOOOOOOOOOOOOOOOOOOOOOOO",
"OOOOOOOOOOOOOOOOOOOOOOOOOOOOOOOOOOOOOOOOOOOOOOOOOOOOOOOOOOOO",
"OOOOOOOOOOOOOOOOOOOOOOOOOOOOOOOOOOOOOOOOOOOOOOOOOOOOOOOOOOOO",
"OOOOOOOOOOOOOOOOOOOOOOOOOOOOOOOOOOOOOOOOOOOOOOOOOOOOOOOOOOOO",
"OOOOOOOOOOOOOOOOOOOOOOOOOOOOOOOOOOOOOOOOOOOOOOOOOOOOOOOOOOOO",
"OOOOOOOOOOOOOOOOOOOOOOOOOOOOOOOOOOOOOOOOOOOOOOOOOOOOOOOOOOOO",
"OOOOOOOOOOOOOOOOOOOOOOOOOOOOOOOOOOOOOOOOOOOOOOOOOOOOOOOOOOOO",
"OOOOOOOOOOOOOOOOOOOOOOOOOOOOOOOOOOOOOOOOOOOOOOOOOOOOOOOOOOOO",
"OOOOOOOOOOOOOOOOOOOOOOOOOOOOOOOOOOOOOOOOOOOOOOOOOOOOOOOOOOOO",
"OOOOOOOOOOOOOOOOOOOOOOOOOOOOOOOOOOOOOOOOOOOOOOOOOOOOOOOOOOOO"
};
