/* XPM */
static char *result[] = {
/* columns rows colors chars-per-pixel */
"60 60 250 2 ",
"   c black",
".  c #010101",
"X  c #020202",
"o  c gray1",
"O  c #040404",
"+  c #070707",
"@  c #090909",
"#  c gray5",
"$  c gray6",
"%  c #101010",
"&  c #111111",
"*  c #131313",
"=  c gray8",
"-  c #151515",
";  c #181818",
":  c #191919",
">  c #1E1E1E",
",  c gray12",
"<  c #202020",
"1  c #282828",
"2  c gray18",
"3  c #323232",
"4  c #3C3C3C",
"5  c gray25",
"6  c gray27",
"7  c #464646",
"8  c gray33",
"9  c #565656",
"0  c #5A5A5A",
"q  c #5B5B5B",
"w  c #626262",
"e  c #646464",
"r  c #656565",
"t  c gray40",
"y  c #676767",
"u  c #686868",
"i  c gray45",
"p  c #767676",
"a  c #797979",
"s  c #9D4EF6",
"d  c #9D4FF6",
"f  c #9E4FF6",
"g  c #9E50F6",
"h  c #9F50F6",
"j  c #9E51F6",
"k  c #9F51F6",
"l  c #9E50F7",
"z  c #9F50F7",
"x  c #9E51F7",
"c  c #9F51F7",
"v  c #9F52F7",
"b  c #9E51F8",
"n  c #9F51F8",
"m  c #A051F7",
"M  c #A052F7",
"N  c #A053F7",
"B  c #A054F7",
"V  c #A155F7",
"C  c #A156F7",
"Z  c #A256F7",
"A  c #A257F7",
"S  c #A258F7",
"D  c #A358F7",
"F  c #A45AF7",
"G  c #A45BF7",
"H  c #A65EF7",
"J  c #A65FF7",
"K  c #A051F8",
"L  c #A151F8",
"P  c #A051F9",
"I  c #A151F9",
"U  c #A052F8",
"Y  c #A152F8",
"T  c #A052F9",
"R  c #A152F9",
"E  c #A252F8",
"W  c #A352F8",
"Q  c #A353F8",
"!  c #A252F9",
"~  c #A253F9",
"^  c #A353F9",
"/  c #A051FA",
"(  c #A052FA",
")  c #A152FA",
"_  c #A152FB",
"`  c #A252FA",
"'  c #A352FA",
"]  c #A253FA",
"[  c #A353FA",
"{  c #A252FB",
"}  c #A253FB",
"|  c #A353FB",
" . c #A453F9",
".. c #A553F9",
"X. c #A453FA",
"o. c #A553FA",
"O. c #A453FB",
"+. c #A454FA",
"@. c #A554FA",
"#. c #A454FB",
"$. c #A554FB",
"%. c #A654FA",
"&. c #A655FA",
"*. c #A654FB",
"=. c #A755FB",
"-. c #A453FC",
";. c #A755FC",
":. c #A755FD",
">. c #A956F9",
",. c #A855FB",
"<. c #A855FC",
"1. c #A956FC",
"2. c #AA57FC",
"3. c #A760F7",
"4. c #A761F7",
"5. c #A861F7",
"6. c #A862F7",
"7. c #AA64F7",
"8. c #AA65F7",
"9. c #AA66F8",
"0. c #AB67F8",
"q. c #AC68F8",
"w. c #AC69F8",
"e. c #AD6AF8",
"r. c #AD6BF8",
"t. c #B071F8",
"y. c #B375F8",
"u. c #B477F8",
"i. c #B578F8",
"p. c #B579F8",
"a. c #B57AF8",
"s. c #B67BF8",
"d. c #B67BF9",
"f. c #B77CF8",
"g. c #B87EF9",
"h. c gray51",
"j. c gray56",
"k. c #959595",
"l. c gray61",
"z. c gray62",
"x. c gray63",
"c. c gray68",
"v. c gray69",
"b. c #B4B4B4",
"n. c gray72",
"m. c gray74",
"M. c #B980F9",
"N. c #BB85F9",
"B. c #BF8BF9",
"V. c #BF8CF9",
"C. c #C08DF9",
"Z. c #C18FF9",
"A. c #C290F9",
"S. c #C291F9",
"D. c #C292F9",
"F. c #C392F9",
"G. c #C393FA",
"H. c #C494F9",
"J. c #C596FA",
"K. c #C79AFA",
"L. c #C89CFA",
"P. c #C99EFA",
"I. c #CBA0FA",
"U. c #CBA1FA",
"Y. c #CCA4FA",
"T. c #CDA5FA",
"R. c #CEA6FA",
"E. c #CFA8FA",
"W. c #D0AAFB",
"Q. c #D0ABFB",
"!. c #D1ACFB",
"~. c #D3B0FB",
"^. c #D5B3FB",
"/. c #D6B5FB",
"(. c #D7B7FB",
"). c #D9BAFB",
"_. c #D9BBFB",
"`. c #DBBDFC",
"'. c #C0C0C0",
"]. c #C1C1C1",
"[. c gray76",
"{. c gray77",
"}. c #C6C6C6",
"|. c gray79",
" X c gray80",
".X c LightGray",
"XX c #D5D5D5",
"oX c gray84",
"OX c #D7D7D7",
"+X c gray86",
"@X c #DDDDDD",
"#X c #DCC1FC",
"$X c #DEC3FC",
"%X c #DEC4FC",
"&X c #E1C9FC",
"*X c #E2CBFC",
"=X c #E3CCFC",
"-X c #E3CEFC",
";X c #E5D0FC",
":X c #E5D1FC",
">X c #E6D2FC",
",X c #E9D7FD",
"<X c #EADAFD",
"1X c #EBDBFD",
"2X c #ECDDFD",
"3X c #EDDEFD",
"4X c #EDDFFD",
"5X c gray88",
"6X c #E1E1E1",
"7X c #E2E2E2",
"8X c gray90",
"9X c gray91",
"0X c #E9E9E9",
"qX c #EDE0FD",
"wX c #EEE1FD",
"eX c #EFE2FD",
"rX c #F0E4FD",
"tX c #F1E6FD",
"yX c #F2E8FD",
"uX c #F3E9FD",
"iX c #F3E9FE",
"pX c #F3EAFE",
"aX c #F5EDFE",
"sX c #F5EEFE",
"dX c #F1F1F1",
"fX c gray95",
"gX c #F4F4F4",
"hX c gray96",
"jX c #F6F6F6",
"kX c gray97",
"lX c #F8F3FE",
"zX c #F9F5FE",
"xX c #FAF6FE",
"cX c #FAF7FE",
"vX c #F8F8F8",
"bX c #F9F9F9",
"nX c #FBFBFB",
"mX c #FBF8FE",
"MX c #FBF9FE",
"NX c #FCFAFE",
"BX c #FDFBFE",
"VX c #FDFDFD",
"CX c #FDFCFE",
"ZX c #FDFDFE",
"AX c #FEFDFE",
"SX c #FEFEFE",
"DX c #FFFEFE",
"FX c #FFFEFF",
"GX c white",
"HX c None",
/* pixels */
"HXHXHXHXHXHXHXHXHXHXHXHXHXHXHXHXHXHXHXHXHXHXHXHXHXHXHXHXHXHXHXHXHXHXHXHXHXHXHXHXHXHXHXHXHXHXHXHXHXHXHXHXHXHXHXHXHXHXHXHX",
"HXHXHXHXHXHXHXHXHXHXHXHXHXHXHXHXHXHXHXHXHXHXHXHXHXHXHXHXHXHXHXHXHXHXHXHXHXHXHXHXHXHXHXHXHXHXHXHXHXHXHXHXHXHXHXHXHXHXHXHX",
"HXHXHXHXHXHXHXHXHXHXHXHXHXHXHXHXHXHXHXHXHXHXHXHXHXHXHXHXHXHXHXHXHXHXg HXHXHXHXHXHXHXHXHXHXHXHXHXHXHXHXHXHXHXHXHXHXHXHXHX",
"HXHXHXHXHXHXHXHXHXHXHXHXHXHXHXHXHXHXHXHXHXHXHXHXHXHXHXHXHXHXHXHXHXHX^ HXHXHXHXHXHXHXHXHXHXHXHXHXHXHXHXHXHXHXHXHXHXHXHXHX",
"HXHXHXHXHXHXHXHXHXHXHXHXHXHXHXHXHXHXHXHXHXHXHXHXHXHXHXHXHXHXHXHXHX$.[ X.HXHXHXHXHXHXHXHXHXHXHXHXHXHXHXHXHXHXHXHXHXHXHXHX",
"HXHXHXHXHXHXHXHXHXHXHXHXHXHXHXHXHXHXHXHXHXHXHXHXHXHXHXHXHXHXHXHXE R Y [ HXHXHXHXHXHXHXHXHXHXHXHXHXHXHXHXHXHXHXHXHXHXHXHX",
"HXHXHXHXHXHXHXHXHXHXHXHXHXHXHXHXHXHXHXHXHXHXHXHXHXHXHXHXHXHXHXHX,.m Y [ HXHXHXHXHXHXHXHXHXHXHXHXHXHXHXHXHXHXHXHXHXHXHXHX",
"HXHXHXHXHXHXHXHXHXHXHXHXHXHXHXHXHXHXHXHXHXHXHXHXHXHXHXHXHXHXHXHXX.m c ) n HXHXHXHXHXHXHXHXHXHXHXHXHXHXHXHXHXHXHXHXHXHXHX",
"HXHXHXHXHXHXHXHXHXHXHXHXHXHXHXHXHXHXHXHXHXHXHXHXHXHXHXHXHXHXHXR P c g / n HXHXHXHXHXHXHXHXHXHXHXHXHXHXHXE W HXHXHXHXHXHX",
"HXHXHXHXHXHXHXHXHXHXHXm %.HXHXHXHXHXHXHXHXHXHXHXHXHXHXHXHXHXHX{ c g g P b HXHXHXHXHXHXHXHXHXHXHXHXHX#.;.^ HXHXHXHXHXHXHX",
"HXHXHXHXHXHXHXHXHXHXHXHX:.R HXHXHXHXHXHXHXHXHXHXHXHXHXHXHXHX[ c c c g P b HXHXHXHXHXHXHXHXHXHXHX) R m X.] HXHXHXHXHXHXHX",
"HXHXHXHXHXHXHXHXHXHXHXHX%.[ | [ HXHXHXHXX.[ HXHXHXHXHXHXHXHXO.g k c g P b HXHXHXHXHXHXHXHXHX&.[ P P [ %.HXHXHXHXHXHXHXHX",
"HXHXHXHXHXHXHXHXHXHXHXHXHX` K R { =.HXHX| R $.HXHXHXHXHXHXX.R g c c g ( n HXHXHXHXHXHXHXHX' ` n c ) R HXHXHXHXHXHXHXHXHX",
"HXHXHXHXHXHXHXHXHXHXHXHXHXHXP c c ! K P n c n P P P P P P Y c g c c g P n HXHXHXHXHXK P R K z c X.~ HXHXHXHXHXHXHXHXHXHX",
"HXHXHXHXHXHXHXHXHXHXHXHXHXHX{ c g h K P z g c P P P P P P c h c c c j z Y ^ HXHXHXX.R P c g c K @.HXHXHXHXHXHXHXHXHXHXHX",
"HXHXHXHXHXHXHXHXHXHXHXHXHXHXK R g j g g j c g g g g g d d d d d f g c g c [ ^ R @.R k g g g K ) HXHXHXHXHXHXHXHXHXHXHXHX",
"HXHXHXHXHXHXHXHXHXHXHXHXHXHXHX#.c g c c c c l j g d D w.w.w.w.e.4.g f g g g c K g g g c g m [ HXHXHXHXHXHXHXHXHXHXHXHXHX",
"HXHXHXHXHXHXHXHXHXHXHXHXHXHXHX*.E g c c c c g l r.M.T.wXeXeXeXrX%XN.a.V g c g g l c c g c +.HXHXHXHXHXHXHXHXHXHXHXHXHXHX",
"HXHXHXHXHXHXHXHXHXHXHXHXHXHXHXHXR c g c g s 3.K.:XzXMXSXGXGXGXGXCXxXyXQ.p.d f g c c g c K HXHXHXHXHXHXHXHXHXHXHXHXHXHXHX",
"HXHXHXHXHXHXHXHXHXHXHXHXHXHXHXHX{ c g g D w._.ZXGXGXGXGXGXGXGXGXGXGXGXGXeXM.H c g c g K ) HXHXHXHXHXHXHXHXHXHXHXHXHXHXHX",
"HXHXHXHXHXHXHXHXHXHXHXHXHXHXHX@.Y l g Z U.4XmXGXFXGXGXSXbXvXkXkXnXGXGXFXSXpX$Xe.f c g n P HXHXHXHXHXHXHXHXHXHXHXHXHXHXHX",
"HXHXHXHXHXHXHXHXHXHXHXHXHXHXR ^ c g B P.zXGXGXGXGXGXoXn.a r t w k.}.gXGXGXGXAX*X9.f k l K =.HXHXHXHXHXHXHXHXHXHXHXHXHXHX",
"HXHXHXHXHX@.E HXHXHXHXHXHXHX_ c j g 8.qXGXGXGXGXvXj.1 & O       @ : 0 6XGXGXGXAXA.g g g c ! HXHXHXHXHXHXHXHXHXHXHXHXHXHX",
"HXHXHXHXHX=.| $.,.HXHXHXHXHXP c g 6./.MXGXGXGX6Xt %                   4 z.nXGXGX<Xd.v g g ^ X.HXHXHXHXHXHXHXHXHXHXHXHXHX",
"HXHXHXHXHXHX` R L | Y HXHX[ c c f J.cXGXGXGX8X7                         $ z.GXGXGX&XF g g c O.HXHXHXHXHXHXHXHXHXHXHXHXHX",
"HXHXHXHXHXHXHXo.c x n _ ) c g f 0.>XSXGXGXdXp                             3 .XGXGXsXZ.f l c R R HXHXHXHXHXHXHXHXHXHXHXHX",
"HXHXHXHXHXHXHX@.K g c c c c k s y.zXGXGXGXv.%                               i vXGXGX~.s l g n ` HXHXHXHXHXHXHXHXHXHXHXHX",
"HXHXHXHXHXHXHXHXP K g k c c g V L.MXGXGXjXw                                 < +XGXGX=X8.g j c l ] ! HXHXHXHXHXHXHXHXHXHX",
"HXHXHXHXHXHXHXHXHX| U g c c g 4.2XGXFXGX0X6                                 # b.GXFXCXB.f c g c c P } | R %.HXHXHXHXHXHX",
"HXHXHXHXHXHXHXHXHX^ ! g g c g 4.3XGXFXGX|.=                                   u GXFXAXV.d c c k g c c x R %.>.HXHXHXHXHX",
"HXHXHXHXHXHXHXHXHXHX$.R c g g 4.3XGXGXGX{.&                                   t GXGXAXV.d c c g g c R X.` HXHXHXHXHXHXHX",
"HXHXHXHXHXHXHXHXHXHXHX! R g g 4.3XGXGXGX'.&                                   r GXGXAXV.d c g c K ` R HXHXHXHXHXHXHXHXHX",
"HXHXHXHXHXHXHXHXHXHXHXT [ g g 5.3XGXGXGX X,                                 . h.GXGXAXV.f j c c ) K HXHXHXHXHXHXHXHXHXHX",
"HXHXHXHXHXHXHXHXHXHXHXY [ g g G `.ZXGXGXdX8                                 ; OXGXGXrXi.f g c K HXHXHXHXHXHXHXHXHXHXHXHX",
"HXHXHXHXHXHXHXHXHXHXHXHX[ K j d a.zXGXGXGXl.@                               q gXGXGX^.k j g n P HXHXHXHXHXHXHXHXHXHXHXHX",
"HXHXHXHXHXHXHXHXHXHXHXHX*.E g s t.pXDXGXGX5X5                             - c.GXGXNXT.f l g n I HXHXHXHXHXHXHXHXHXHXHXHX",
"HXHXHXHXHXHXHXHXHXHXHXHX%.[ l g M R.CXGXGXGX].*                           r bXGXGX,X7.g l c I | HXHXHXHXHXHXHXHXHXHXHXHX",
"HXHXHXHXHXHXHXHXHXHXHXHXHX$.c c f p.1XGXGXGXkXx.3 +                   : 9 XXGXGXlXI.V g g c [ HXHXHXHXHXHXHXHXHXHXHXHXHX",
"HXHXHXHXHXHXHXHXHXHXHXHXHXc P c g c s.uXGXFXGXVX7Xy @             X 2 m.fXGXFXSXE.S g c g ! ! HXHXHXHXHXHXHXHXHXHXHXHXHX",
"HXHXHXHXHXHXHXHXHXHXHXHXHX .c c j g D #XGXFXGXGXGXhXx.e > o + @ 5 h.@XGXGXFXGXiXu.d c g z X.HXHXHXHXHXHXHXHXHXHXHXHXHXHX",
"HXHXHXHXHXHXHXHXHXHXHXHXHXO.c j z x g e.*XBXSXGXGXGXGXSX.X[.{.}.9XGXGXGXSXAXyXC.N j z g n -.HXHXHXHXHXHXHXHXHXHXHXHXHXHX",
"HXHXHXHXHXHXHXHXHXHXHXHXO.m g c c c l f q.G.4XGXFXFXGXGXGXGXGXGXGXFXFXGXcX!.s.N g c c g K -.HXHXHXHXHXHXHXHXHXHXHXHXHXHX",
"HXHXHXHXHXHXHXHXHXHXHXK ` g x c c c k k f s f.-XaXGXFXFXGXGXGXFXFXGXmX<XY.C s g c c c g n | HXHXHXHXHXHXHXHXHXHXHXHXHXHX",
"HXHXHXHXHXHXHXHXHXHXHX| n g c c c g l l j g M J S.(.;XBXCXCXCXSXtX).W.e.A g c z c c c g l X...HXHXHXHXHXHXHXHXHXHXHXHXHX",
"HXHXHXHXHXHXHXHXHXHXc n c g c g g m ) K c g g g g c w.F.F.F.D.H.g.B c g g c z c c c c c g [ ^ HXHXHXHXHXHXHXHXHXHXHXHXHX",
"HXHXHXHXHXHXHXHXHX .^ l g c c c ! @.HXO.R c c z z c g s s s s s f g c z z c c c c c c c g K [ HXHXHXHXHXHXHXHXHXHXHXHXHX",
"HXHXHXHXHXHXHXHXHX$.E g g c ( ) ! HXHXHXT { P z g g l l l l l l l g g g g g g g g g g g c c ` K HXHXHXHXHXHXHXHXHXHXHXHX",
"HXHXHXHXHXHXHXHXK T m c ! K HXHXHXHXHXHXHXHXc  .~ c g x g g g g g c m K [ O.R k c ) K c g g n ) HXHXHXHXHXHXHXHXHXHXHXHX",
"HXHXHXHXHXHXHXHXO.` ) [ %.HXHXHXHXHXHXHXHXHXHXHX@.` n h P ) ) ) ! ` *.^ HXHXo.` $.R #.| ` P n K HXHXHXHXHXHXHXHXHXHXHXHX",
"HXHXHXHXHXHXHX=.R R ! HXHXHXHXHXHXHXHXHXHXHXHXHXHXK ) n K R R R R HXHXHXHXHXHXI Q HXHXHXR P R m @.HXHXHXHXHXHXHXHXHXHXHX",
"HXHXHXHXHXHXHX2.-.HXHXHXHXHXHXHXHXHXHXHXHXHXHXHXHXHX@.<.HXHXHXHXHXHXHXHXHXHXHXHXHXHXHXHXHXHX*.*.1.%.HXHXHXHXHXHXHXHXHXHX",
"HXHXHXHXHXHXHXHXHXHXHXHXHXHXHXHXHXHXHXHXHXHXHXHXHXHXHXHXHXHXHXHXHXHXHXHXHXHXHXHXHXHXHXHXHXHXHXHXHXHXHXHXHXHXHXHXHXHXHXHX",
"HXHXHXHXHXHXHXHXHXHXHXHXHXHXHXHXHXHXHXHXHXHXHXHXHXHXHXHXHXHXHXHXHXHXHXHXHXHXHXHXHXHXHXHXHXHXHXHXHXHXHXHXHXHXHXHXHXHXHXHX",
"HXHXHXHXHXHXHXHXHXHXHXHXHXHXHXHXHXHXHXHXHXHXHXHXHXHXHXHXHXHXHXHXHXHXHXHXHXHXHXHXHXHXHXHXHXHXHXHXHXHXHXHXHXHXHXHXHXHXHXHX",
"HXHXHXHXHXHXHXHXHXHXHXHXHXHXHXHXHXHXHXHXHXHXHXHXHXHXHXHXHXHXHXHXHXHXHXHXHXHXHXHXHXHXHXHXHXHXHXHXHXHXHXHXHXHXHXHXHXHXHXHX",
"HXHXHXHXHXHXHXHXHXHXHXHXHXHXHXHXHXHXHXHXHXHXHXHXHXHXHXHXHXHXHXHXHXHXHXHXHXHXHXHXHXHXHXHXHXHXHXHXHXHXHXHXHXHXHXHXHXHXHXHX",
"HXHXHXHXHXHXHXHXHXHXHXHXHXHXHXHXHXHXHXHXHXHXHXHXHXHXHXHXHXHXHXHXHXHXHXHXHXHXHXHXHXHXHXHXHXHXHXHXHXHXHXHXHXHXHXHXHXHXHXHX",
"HXHXHXHXHXHXHXHXHXHXHXHXHXHXHXHXHXHXHXHXHXHXHXHXHXHXHXHXHXHXHXHXHXHXHXHXHXHXHXHXHXHXHXHXHXHXHXHXHXHXHXHXHXHXHXHXHXHXHXHX",
"HXHXHXHXHXHXHXHXHXHXHXHXHXHXHXHXHXHXHXHXHXHXHXHXHXHXHXHXHXHXHXHXHXHXHXHXHXHXHXHXHXHXHXHXHXHXHXHXHXHXHXHXHXHXHXHXHXHXHXHX",
"HXHXHXHXHXHXHXHXHXHXHXHXHXHXHXHXHXHXHXHXHXHXHXHXHXHXHXHXHXHXHXHXHXHXHXHXHXHXHXHXHXHXHXHXHXHXHXHXHXHXHXHXHXHXHXHXHXHXHXHX"
};
