/* XPM */
static char *result[] = {
/* columns rows colors chars-per-pixel */
"60 60 182 2 ",
"   c #9D4EF6",
".  c #9D4FF6",
"X  c #9E4FF6",
"o  c #9E50F6",
"O  c #9F50F6",
"+  c #9E51F6",
"@  c #9F51F6",
"#  c #9E50F7",
"$  c #9F50F7",
"%  c #9E51F7",
"&  c #9F51F7",
"*  c #9F52F7",
"=  c #9E51F8",
"-  c #9F51F8",
";  c #A051F7",
":  c #A151F7",
">  c #A152F7",
",  c #A053F7",
"<  c #A054F7",
"1  c #A154F7",
"2  c #A155F7",
"3  c #A156F7",
"4  c #A256F7",
"5  c #A257F7",
"6  c #A359F7",
"7  c #A45AF7",
"8  c #A45BF7",
"9  c #A55BF7",
"0  c #A55CF7",
"q  c #A55DF7",
"w  c #A65EF7",
"e  c #A65FF7",
"r  c #A75FF7",
"t  c #A051F8",
"y  c #A151F8",
"u  c #A051F9",
"i  c #A151F9",
"p  c #A052F8",
"a  c #A152F8",
"s  c #A052F9",
"d  c #A152F9",
"f  c #A252F8",
"g  c #A252F9",
"h  c #A352F9",
"j  c #A253F9",
"k  c #A353F9",
"l  c #A051FA",
"z  c #A151FA",
"x  c #A052FA",
"c  c #A152FA",
"v  c #A252FA",
"b  c #A253FA",
"n  c #A353FA",
"m  c #A252FB",
"M  c #A352FB",
"N  c #A253FB",
"B  c #A353FB",
"V  c #A453F9",
"C  c #A453FA",
"Z  c #A553FA",
"A  c #A453FB",
"S  c #A454F9",
"D  c #A454FA",
"F  c #A554FA",
"G  c #A554FB",
"H  c #A654FA",
"J  c #A654FB",
"K  c #A755FB",
"L  c #A252FC",
"P  c #A453FC",
"I  c #A553FC",
"U  c #A453FD",
"Y  c #A554FC",
"T  c #A755FC",
"R  c #A955FB",
"E  c #A956FB",
"W  c #AB57FA",
"Q  c #A855FC",
"!  c #A855FD",
"~  c #A856FC",
"^  c #A956FC",
"/  c #A760F7",
"(  c #A761F7",
")  c #A861F7",
"_  c #AB67F8",
"`  c #AC6AF8",
"'  c #AD6AF8",
"]  c #AF6EF8",
"[  c #AF6FF8",
"{  c #B273F8",
"}  c #B274F8",
"|  c #B375F8",
" . c #B477F8",
".. c #B579F8",
"X. c #B67BF9",
"o. c #B77CF8",
"O. c #B77CF9",
"+. c #B87FF9",
"@. c #B980F9",
"#. c #BA82F9",
"$. c #BA83F9",
"%. c #BC85F9",
"&. c #BD87F9",
"*. c #BF8AF9",
"=. c #BF8CF9",
"-. c #C08DF9",
";. c #C18FF9",
":. c #C290F9",
">. c #C292F9",
",. c #C495FA",
"<. c #C698FA",
"1. c #CBA0FA",
"2. c #CCA2FA",
"3. c #CCA4FA",
"4. c #CDA5FA",
"5. c #D1ACFB",
"6. c #D2ADFB",
"7. c #D2AEFB",
"8. c #D3AFFB",
"9. c #D3B0FB",
"0. c #D4B1FB",
"q. c #D4B2FB",
"w. c #D5B3FB",
"e. c #D6B5FB",
"r. c #D6B6FB",
"t. c #D7B6FB",
"y. c #D7B7FB",
"u. c #D8B9FB",
"i. c #DABCFB",
"p. c #DBBEFC",
"a. c #DCBFFC",
"s. c #DCC0FC",
"d. c #DDC2FC",
"f. c #DEC4FC",
"g. c #E2CBFC",
"h. c #E2CCFC",
"j. c #E3CCFC",
"k. c #E3CDFC",
"l. c #E4CEFC",
"z. c #E4CFFC",
"x. c #E5D0FC",
"c. c #E5D1FC",
"v. c #E6D3FC",
"b. c #E9D7FD",
"n. c #EBDBFD",
"m. c #EBDCFD",
"M. c #EDDEFD",
"N. c #EDDFFD",
"B. c #EEE2FD",
"V. c #F0E5FD",
"C. c #F1E6FD",
"Z. c #F1E7FD",
"A. c #F2E7FD",
"S. c #F2E8FD",
"D. c #F3EAFD",
"F. c #F4EAFE",
"G. c #F6EFFE",
"H. c #F7F0FE",
"J. c #F7F1FE",
"K. c #F7F2FE",
"L. c #F8F2FE",
"P. c #F8F4FE",
"I. c #F9F4FE",
"U. c #F9F5FE",
"Y. c #FAF5FE",
"T. c #FAF6FE",
"R. c #FAF7FE",
"E. c #FBF7FE",
"W. c #FBF8FE",
"Q. c #FBF9FE",
"!. c #FCF9FE",
"~. c #FCFBFE",
"^. c #FDFBFE",
"/. c #FDFCFE",
"(. c #FEFDFE",
"). c #FEFEFE",
"_. c #FFFEFE",
"`. c #FFFFFE",
"'. c #FEFEFF",
"]. c #FFFEFF",
"[. c white",
"{. c None",
/* pixels */
"{.{.{.{.{.{.{.{.{.{.{.{.{.{.{.{.{.{.{.{.{.{.{.{.{.{.{.{.{.{.{.{.{.{.{.{.{.{.{.{.{.{.{.{.{.{.{.{.{.{.{.{.{.{.{.{.{.{.{.{.",
"{.{.{.{.{.{.{.{.{.{.{.{.{.{.{.{.{.{.{.{.{.{.{.{.{.{.{.{.{.{.{.{.{.{.{.{.{.{.{.{.{.{.{.{.{.{.{.{.{.{.{.{.{.{.{.{.{.{.{.{.",
"{.{.{.{.{.{.{.{.{.{.{.{.{.{.{.{.{.{.{.{.{.{.{.{.{.{.{.{.{.{.{.{.{.{.t {.{.{.{.{.{.{.{.{.{.{.{.{.{.{.{.{.{.{.{.{.{.{.{.{.",
"{.{.{.{.{.{.{.{.{.{.{.{.{.{.{.{.{.{.{.{.{.{.{.{.{.{.{.{.{.{.{.{.{.I G k {.{.{.{.{.{.{.{.{.{.{.{.{.{.{.{.{.{.{.{.{.{.{.{.",
"{.{.{.{.{.{.{.{.{.{.{.{.{.{.{.{.{.{.{.{.{.{.{.{.{.{.{.{.{.{.{.{.{.n d C {.{.{.{.{.{.{.{.{.{.{.{.{.{.{.{.{.{.{.{.{.{.{.{.",
"{.{.{.{.{.{.{.{.{.{.{.{.{.{.{.{.{.{.{.{.{.{.{.{.{.{.{.{.{.{.{.{.H t a n {.{.{.{.{.{.{.{.{.{.{.{.{.{.{.{.{.{.{.{.{.{.{.{.",
"{.{.{.{.{.{.{.{.{.{.{.{.{.{.{.{.{.{.{.{.{.{.{.{.{.{.{.{.{.{.{.{.J ; t c {.{.{.{.{.{.{.{.{.{.{.{.{.{.{.{.{.{.{.{.{.{.{.{.",
"{.{.{.{.{.{.{.{.{.{.{.{.{.{.{.{.{.{.{.{.{.{.{.{.{.{.{.{.{.{.{.t d & o c - {.{.{.{.{.{.{.{.{.{.{.{.{.{.{.{.: {.{.{.{.{.{.",
"{.{.{.{.{.{.{.{.{.{.{.{.{.{.{.{.{.{.{.{.{.{.{.{.{.{.{.{.{.{.{.m t o o u = {.{.{.{.{.{.{.{.{.{.{.{.{.B K k {.{.{.{.{.{.{.",
"{.{.{.{.{.{.{.{.{.{.{.a ! j {.{.{.{.{.{.{.{.{.{.{.{.{.{.{.{.v t # & o u = {.{.{.{.{.{.{.{.{.{.{.{.k g C n {.{.{.{.{.{.{.",
"{.{.{.{.{.{.{.{.{.{.{.{.G g d f {.{.{.{.f a {.{.{.{.{.{.{.{.A o @ & o u = {.{.{.{.{.{.{.{.{.k d d u a H {.{.{.{.{.{.{.{.",
"{.{.{.{.{.{.{.{.{.{.{.{.V C v n m {.{.{.G n G {.{.{.{.{.{.{.v o & & o u = {.{.{.{.{.{.{.{.{.J v & i n {.{.{.{.{.{.{.{.{.",
"{.{.{.{.{.{.{.{.{.{.{.{.{.$ - & t H > & i - d {.{.{.{.{.{.k ; o & & o x - {.{.{.{.{.{.{.n v & o a d {.{.{.{.{.{.{.{.{.{.",
"{.{.{.{.{.{.{.{.{.{.{.{.{.{.m & o $ u l $ o & c c c c c z & O % & & o - t {.{.{.{.f c c - # % ; H {.{.{.{.{.{.{.{.{.{.{.",
"{.{.{.{.{.{.{.{.{.{.{.{.{.{.c t o & & & & + & & & & & & & & @ & $ $ & o t G S {.H n & & & o & c {.{.{.{.{.{.{.{.{.{.{.{.",
"{.{.{.{.{.{.{.{.{.{.{.{.{.{.a C o @ & & & & & % o o o & & & & & @ o o o o ; t d ; & o & o & d u {.{.{.{.{.{.{.{.{.{.{.{.",
"{.{.{.{.{.{.{.{.{.{.{.{.{.{.{.G a o & & & & o o 5 q o.q.w.w.w.e.<.( 9 & o o % & o o & o & V S {.{.{.{.{.{.{.{.{.{.{.{.{.",
"{.{.{.{.{.{.{.{.{.{.{.{.{.{.{.V a # + $ $ o < ` 4.c.B.(.[.[.[.[.H.v.d...0 X @ o & & o & - j {.{.{.{.{.{.{.{.{.{.{.{.{.{.",
"{.{.{.{.{.{.{.{.{.{.{.{.{.{.{.{.L & o o o * :.A.W.[.].].[.[.[.].].[./.J.i.e o o & & o t s {.{.{.{.{.{.{.{.{.{.{.{.{.{.{.",
"{.{.{.{.{.{.{.{.{.{.{.{.{.{.{.{.d & o # X.9.D.[.[.[.[.[.[.[.[.[.[.[.[.[.~.f.,.6 o & o t l {.{.{.{.{.{.{.{.{.{.{.{.{.{.{.",
"{.{.{.{.{.{.{.{.{.{.{.{.{.{.{.F ; o @  .m.).[.].].[.[.[.[.[.[.[.[.[.[.].].[.L.1.4 o o & t J {.{.{.{.{.{.{.{.{.{.{.{.{.{.",
"{.{.{.{.{.{.{.{.{.{.{.{.{.{.c t o o 7 x.[.].[.[.[.[.[.[.[.[.[.[.[.[.[.[.[.].[.U.+.  % o - n {.{.{.{.{.{.{.{.{.{.{.{.{.{.",
"{.{.{.{.{.^ A n {.{.{.{.{.{.c & o 1 -.G.[.[.[.[.[.[.[.[.[.[.[.[.[.[.[.[.[.[.[.'.u./ o o o V V {.{.{.{.{.{.{.{.{.{.{.{.{.",
"{.{.{.{.{.d v n C G j {.{.C - &   $.S.[.[.[.[.[.[.[.[.[.[.[.[.[.[.[.[.[.[.[.[.[.!.0.3 o o t A {.{.{.{.{.{.{.{.{.{.{.{.{.",
"{.{.{.{.{.{.h g o t t c z t & o 7 r./.[.[.[.[.[.[.[.[.[.[.[.[.[.[.[.[.[.[.[.[.].[.N.{ o # & v - {.{.{.{.{.{.{.{.{.{.{.{.",
"{.{.{.{.{.{.{.J ; o & t t & o   } J._.[.[.[.[.[.[.[.[.[.[.[.[.[.[.[.[.[.[.[.[.[.[.).5.. # o - B {.{.{.{.{.{.{.{.{.{.{.{.",
"{.{.{.{.{.{.{.{.u & o o o o # o @.Y.[.[.[.[.[.[.[.[.[.[.[.[.[.[.[.[.[.[.[.[.[.[.[.[.y.1 o o & - n {.{.{.{.{.{.{.{.{.{.{.",
"{.{.{.{.{.{.{.{.{.b & o & & o w l.[.[.[.[.[.[.[.[.[.[.[.[.[.[.[.[.[.[.[.[.[.[.[.[.[.J.#.X & o & s d v b t {.{.{.{.{.{.{.",
"{.{.{.{.{.{.{.{.{.D g o @ & o ) M.[.].[.[.[.[.[.[.[.[.[.[.[.[.[.[.[.[.[.[.[.[.[.[.].(.=.X & & @ o & t p g R W {.{.{.{.{.",
"{.{.{.{.{.{.{.{.{.{.B - # + o ( M.[.[.[.[.[.[.[.[.[.[.[.[.[.[.[.[.[.[.[.[.[.[.[.[.[.(.=.. & & & o o & ; c t {.{.{.{.{.{.",
"{.{.{.{.{.{.{.{.{.{.{.v t o o ( M.[.[.[.[.[.[.[.[.[.[.[.[.[.[.[.[.[.[.[.[.[.[.[.[.[.(.=.. & & & & y b Q V {.{.{.{.{.{.{.",
"{.{.{.{.{.{.{.{.{.{.{.t b o o ( M.[.[.[.[.[.[.[.[.[.[.[.[.[.[.[.[.[.[.[.[.[.[.[.[.[.(.=.. & o & v d {.{.{.{.{.{.{.{.{.{.",
"{.{.{.{.{.{.{.{.{.{.{.a n o o r b.[.[.[.[.[.[.[.[.[.[.[.[.[.[.[.[.[.[.[.[.[.[.[.[.[.R.&.X o & t & {.{.{.{.{.{.{.{.{.{.{.",
"{.{.{.{.{.{.{.{.{.{.{.{.n & o * =.T.[.[.[.[.[.[.[.[.[.[.[.[.[.[.[.[.[.[.[.[.[.[.[.[.a.8 o o - u {.{.{.{.{.{.{.{.{.{.{.{.",
"{.{.{.{.{.{.{.{.{.{.{.{.A a o   | I.[.[.[.[.[.[.[.[.[.[.[.[.[.[.[.[.[.[.[.[.[.[.].[.8.  % o - u {.{.{.{.{.{.{.{.{.{.{.{.",
"{.{.{.{.{.{.{.{.{.{.{.{.J g o o w s.(.[.[.[.[.[.[.[.[.[.[.[.[.[.[.[.[.[.[.[.[.].[.V.O.X # o t m {.{.{.{.{.{.{.{.{.{.{.{.",
"{.{.{.{.{.{.{.{.{.{.{.{.{.G & @   -.J.[.[.[.[.[.[.[.[.[.[.[.[.[.[.[.[.[.[.[.[.[./.p.5 o & & n {.{.{.{.{.{.{.{.{.{.{.{.{.",
"{.{.{.{.{.{.{.{.{.{.{.{.{.f - & o 8 2.U.[.[.[.[.[.[.[.[.[.[.[.[.[.[.[.[.[.[.[.[.g.] & o o t g {.{.{.{.{.{.{.{.{.{.{.{.{.",
"{.{.{.{.{.{.{.{.{.{.{.{.{.t t & + X q b.[.].[.[.[.[.[.[.[.[.[.[.[.[.[.[.[.].[.Q.%.  o @ o C F {.{.{.{.{.{.{.{.{.{.{.{.{.",
"{.{.{.{.{.{.{.{.{.{.{.{.{.G & o $ o , *.F.`.[.[.[.[.[.[.[.[.[.[.[.[.[.[.[.[.!.t.w o $ o - B {.{.{.{.{.{.{.{.{.{.{.{.{.{.",
"{.{.{.{.{.{.{.{.{.{.{.{.G g o & & & o , -.h.P.[.[.[.[.[.[.[.[.[.[.[.[.[.).n.6./ X & $ o t U {.{.{.{.{.{.{.{.{.{.{.{.{.{.",
"{.{.{.{.{.{.{.{.{.{.{.t B & o & & & & o o 4 3.K.^.[.].].[.[.[.].].[.(.W.l.` o o & $ & o t P {.{.{.{.{.{.{.{.{.{.{.{.{.{.",
"{.{.{.{.{.{.{.{.{.{.{.v u o & & & o o o & o 7 #.i.C.G.).[.[.[.[.E.Z.b.>.' o % $ & & & o & n {.{.{.{.{.{.{.{.{.{.{.{.{.{.",
"{.{.{.{.{.{.{.{.{.{.{.d & o & o o # t & o @ o X w ' ;.j.k.k.k.z.7.[ _ * X # & & & & & & o C Z {.{.{.{.{.{.{.{.{.{.{.{.{.",
"{.{.{.{.{.{.{.{.{.{.g $ & o o & & V b B t o o + X   @ 2 2 2 2 2 , X X o & & & & & & & & o d g {.{.{.{.{.{.{.{.{.{.{.{.{.",
"{.{.{.{.{.{.{.{.{.H j o o & u s n C {.{.d d - $ o & # # # # # # # # & o o o o & o o o & o & A {.{.{.{.{.{.{.{.{.{.{.{.{.",
"{.{.{.{.{.{.{.{.{.b a o & & s m {.{.{.{.{.B - a t o o & o o o o o o o & a d & o & t & o o o t s {.{.{.{.{.{.{.{.{.{.{.{.",
"{.{.{.{.{.{.{.{.A s - j H t {.{.{.{.{.{.{.{.{.H G a & o & - & & ; d G k A Y C t v v A v t & - s {.{.{.{.{.{.{.{.{.{.{.{.",
"{.{.{.{.{.{.{.F v m B v {.{.{.{.{.{.{.{.{.{.{.{.{.d u $ c m N N N s {.{.{.{.{.M H {.{.g B c t t C {.{.{.{.{.{.{.{.{.{.{.",
"{.{.{.{.{.{.{.^ A {.{.{.{.{.{.{.{.{.{.{.{.{.{.{.{.{.A C {.{.{.{.{.{.{.{.{.{.{.{.{.{.{.{.{.{.D k K {.{.{.{.{.{.{.{.{.{.{.",
"{.{.{.{.{.{.{.E {.{.{.{.{.{.{.{.{.{.{.{.{.{.{.{.{.{.{.E {.{.{.{.{.{.{.{.{.{.{.{.{.{.{.{.{.{.{.T ~ {.{.{.{.{.{.{.{.{.{.{.",
"{.{.{.{.{.{.{.{.{.{.{.{.{.{.{.{.{.{.{.{.{.{.{.{.{.{.{.{.{.{.{.{.{.{.{.{.{.{.{.{.{.{.{.{.{.{.{.{.{.{.{.{.{.{.{.{.{.{.{.{.",
"{.{.{.{.{.{.{.{.{.{.{.{.{.{.{.{.{.{.{.{.{.{.{.{.{.{.{.{.{.{.{.{.{.{.{.{.{.{.{.{.{.{.{.{.{.{.{.{.{.{.{.{.{.{.{.{.{.{.{.{.",
"{.{.{.{.{.{.{.{.{.{.{.{.{.{.{.{.{.{.{.{.{.{.{.{.{.{.{.{.{.{.{.{.{.{.{.{.{.{.{.{.{.{.{.{.{.{.{.{.{.{.{.{.{.{.{.{.{.{.{.{.",
"{.{.{.{.{.{.{.{.{.{.{.{.{.{.{.{.{.{.{.{.{.{.{.{.{.{.{.{.{.{.{.{.{.{.{.{.{.{.{.{.{.{.{.{.{.{.{.{.{.{.{.{.{.{.{.{.{.{.{.{.",
"{.{.{.{.{.{.{.{.{.{.{.{.{.{.{.{.{.{.{.{.{.{.{.{.{.{.{.{.{.{.{.{.{.{.{.{.{.{.{.{.{.{.{.{.{.{.{.{.{.{.{.{.{.{.{.{.{.{.{.{.",
"{.{.{.{.{.{.{.{.{.{.{.{.{.{.{.{.{.{.{.{.{.{.{.{.{.{.{.{.{.{.{.{.{.{.{.{.{.{.{.{.{.{.{.{.{.{.{.{.{.{.{.{.{.{.{.{.{.{.{.{.",
"{.{.{.{.{.{.{.{.{.{.{.{.{.{.{.{.{.{.{.{.{.{.{.{.{.{.{.{.{.{.{.{.{.{.{.{.{.{.{.{.{.{.{.{.{.{.{.{.{.{.{.{.{.{.{.{.{.{.{.{.",
"{.{.{.{.{.{.{.{.{.{.{.{.{.{.{.{.{.{.{.{.{.{.{.{.{.{.{.{.{.{.{.{.{.{.{.{.{.{.{.{.{.{.{.{.{.{.{.{.{.{.{.{.{.{.{.{.{.{.{.{.",
"{.{.{.{.{.{.{.{.{.{.{.{.{.{.{.{.{.{.{.{.{.{.{.{.{.{.{.{.{.{.{.{.{.{.{.{.{.{.{.{.{.{.{.{.{.{.{.{.{.{.{.{.{.{.{.{.{.{.{.{."
};
