/* XPM */
static char *result[] = {
/* columns rows colors chars-per-pixel */
"60 60 256 2 ",
"   c black",
".  c #010101",
"X  c #020202",
"o  c gray1",
"O  c #040404",
"+  c gray2",
"@  c #060606",
"#  c #070707",
"$  c gray3",
"%  c #090909",
"&  c gray4",
"*  c #0B0B0B",
"=  c #0C0C0C",
"-  c gray5",
";  c #0E0E0E",
":  c gray6",
">  c #101010",
",  c #111111",
"<  c gray7",
"1  c #131313",
"2  c gray8",
"3  c #151515",
"4  c #161616",
"5  c gray9",
"6  c #181818",
"7  c #191919",
"8  c gray10",
"9  c #1B1B1B",
"0  c gray11",
"q  c #1D1D1D",
"w  c #1E1E1E",
"e  c gray12",
"r  c #202020",
"t  c gray13",
"y  c #222222",
"u  c #232323",
"i  c gray14",
"p  c #252525",
"a  c gray15",
"s  c #272727",
"d  c #282828",
"f  c gray16",
"g  c #2A2A2A",
"h  c gray17",
"j  c #2C2C2C",
"k  c #2D2D2D",
"l  c gray18",
"z  c #2F2F2F",
"x  c gray19",
"c  c #313131",
"v  c #323232",
"b  c gray20",
"n  c #343434",
"m  c #353535",
"M  c gray21",
"N  c #373737",
"B  c gray22",
"V  c #393939",
"C  c #3A3A3A",
"Z  c gray23",
"A  c #3C3C3C",
"S  c gray24",
"D  c #3E3E3E",
"F  c #3F3F3F",
"G  c gray25",
"H  c #414141",
"J  c gray26",
"K  c #434343",
"L  c #444444",
"P  c gray27",
"I  c #464646",
"U  c gray28",
"Y  c #484848",
"T  c #494949",
"R  c gray29",
"E  c #4B4B4B",
"W  c #4C4C4C",
"Q  c gray30",
"!  c #4E4E4E",
"~  c gray31",
"^  c #505050",
"/  c #515151",
"(  c gray32",
")  c #535353",
"_  c gray33",
"`  c #555555",
"'  c #565656",
"]  c gray34",
"[  c #585858",
"{  c gray35",
"}  c #5A5A5A",
"|  c #5B5B5B",
" . c gray36",
".. c #5D5D5D",
"X. c gray37",
"o. c #5F5F5F",
"O. c #606060",
"+. c gray38",
"@. c #626262",
"#. c gray39",
"$. c #646464",
"%. c #656565",
"&. c gray40",
"*. c #676767",
"=. c #686868",
"-. c DimGray",
";. c #6A6A6A",
":. c gray42",
">. c #6C6C6C",
",. c #6D6D6D",
"<. c gray43",
"1. c #6F6F6F",
"2. c gray44",
"3. c #717171",
"4. c #727272",
"5. c gray45",
"6. c #747474",
"7. c gray46",
"8. c #767676",
"9. c #777777",
"0. c gray47",
"q. c #797979",
"w. c gray48",
"e. c #7B7B7B",
"r. c #7C7C7C",
"t. c gray49",
"y. c #7E7E7E",
"u. c gray50",
"i. c #808080",
"p. c #818181",
"a. c gray51",
"s. c #838383",
"d. c #848484",
"f. c gray52",
"g. c #868686",
"h. c gray53",
"j. c #888888",
"k. c #898989",
"l. c gray54",
"z. c #8B8B8B",
"x. c gray55",
"c. c #8D8D8D",
"v. c #8E8E8E",
"b. c gray56",
"n. c #909090",
"m. c gray57",
"M. c #929292",
"N. c #939393",
"B. c gray58",
"V. c #959595",
"C. c gray59",
"Z. c #979797",
"A. c #989898",
"S. c gray60",
"D. c #9A9A9A",
"F. c #9B9B9B",
"G. c gray61",
"H. c #9D9D9D",
"J. c gray62",
"K. c #9F9F9F",
"L. c #A0A0A0",
"P. c gray63",
"I. c #A2A2A2",
"U. c gray64",
"Y. c #A4A4A4",
"T. c #A5A5A5",
"R. c gray65",
"E. c #A7A7A7",
"W. c gray66",
"Q. c #A9A9A9",
"!. c #AAAAAA",
"~. c gray67",
"^. c #ACACAC",
"/. c gray68",
"(. c #AEAEAE",
"). c #AFAFAF",
"_. c gray69",
"`. c #B1B1B1",
"'. c #B2B2B2",
"]. c gray70",
"[. c #B4B4B4",
"{. c gray71",
"}. c #B6B6B6",
"|. c #B7B7B7",
" X c gray72",
".X c #B9B9B9",
"XX c gray73",
"oX c #BBBBBB",
"OX c #BCBCBC",
"+X c gray74",
"@X c gray",
"#X c gray75",
"$X c #C0C0C0",
"%X c #C1C1C1",
"&X c gray76",
"*X c #C3C3C3",
"=X c gray77",
"-X c #C5C5C5",
";X c #C6C6C6",
":X c gray78",
">X c #C8C8C8",
",X c gray79",
"<X c #CACACA",
"1X c #CBCBCB",
"2X c gray80",
"3X c #CDCDCD",
"4X c #CECECE",
"5X c gray81",
"6X c #D0D0D0",
"7X c gray82",
"8X c #D2D2D2",
"9X c LightGray",
"0X c gray83",
"qX c #D5D5D5",
"wX c gray84",
"eX c #D7D7D7",
"rX c #D8D8D8",
"tX c gray85",
"yX c #DADADA",
"uX c gray86",
"iX c gainsboro",
"pX c #DDDDDD",
"aX c gray87",
"sX c #DFDFDF",
"dX c gray88",
"fX c #E1E1E1",
"gX c #E2E2E2",
"hX c gray89",
"jX c #E4E4E4",
"kX c gray90",
"lX c #E6E6E6",
"zX c #E7E7E7",
"xX c gray91",
"cX c #E9E9E9",
"vX c #EAEAEA",
"bX c gray92",
"nX c #ECECEC",
"mX c gray93",
"MX c #EEEEEE",
"NX c #EFEFEF",
"BX c gray94",
"VX c #F1F1F1",
"CX c gray95",
"ZX c #F3F3F3",
"AX c #F4F4F4",
"SX c gray96",
"DX c #F6F6F6",
"FX c gray97",
"GX c #F8F8F8",
"HX c #F9F9F9",
"JX c gray98",
"KX c #FBFBFB",
"LX c gray99",
"PX c #FDFDFD",
"IX c #FEFEFE",
"UX c white",
/* pixels */
"PXhX`.T A 5.AXIXIXcX+.n o.}.mXLXhX`.T A 5.AXIXIXcX+.n o.}.mXLXhX`.T A 5.AXIXIXcX+.n o.}.mXLXhX`.T A 5.AXIXIXcX+.n o.|.bX",
"HXE.I 0.wXDXPXIXIXPXDX-X5.D :XFXE.I 0.wXDXPXIXIXPXDX-X5.D :XFXE.I 0.wXDXPXIXIXPXDX-X5.D :XFXE.I 0.wXDXPXIXIXPXDX-X5.D $X",
"HXY.s.DXIXIXIXUXUXIXIXIXAX=.=XDXY.s.DXIXIXIXUXUXIXIXIXAX=.=XDXY.s.DXIXIXIXUXUXIXIXIXAX=.=XDXY.s.DXIXIXIXUXUXIXIXIXAX*.OX",
"HXU.s.HXUXUXUXUXUXUXUXUXDX*.=XDXU.s.HXUXUXUXUXUXUXUXUXDX*.=XDXU.s.HXUXUXUXUXUXUXUXUXDX*.=XDXU.s.HXUXUXUXUXUXUXUXUXDX*.OX",
"KXW.{ uXPXUXUXUXUXUXUXPX<XE :XHXW.{ uXPXUXUXUXUXUXUXPX<XE :XHXW.{ uXPXUXUXUXUXUXUXPX<XE :XHXW.{ uXPXUXUXUXUXUXUXPX<XE $X",
"hX8XQ n.FXUXUXUXUXUXUXVX3.@.fXkX8XQ n.FXUXUXUXUXUXUXVX3.@.fXkX8XQ n.FXUXUXUXUXUXUXVX3.@.fXkX8XQ n.FXUXUXUXUXUXUXVX3.@.dX",
"q.DXP.R ~.KXUXUXUXUXAXZ.Y +XMXl.FXP.R ~.KXUXUXUXUXAXZ.Y +XMXl.FXP.R ~.KXUXUXUXUXAXZ.Y +XMXl.FXP.R ~.KXUXUXUXUXAXZ.Y @XUX",
"w ].hXf.G h.oXIXJX/.r.H S.cXF.l ].hXf.G h.oXIXJX/.r.H S.cXF.l ].hXf.G h.oXIXJX/.r.H S.cXF.l ].hXf.G h.oXIXJX/.r.H S.vX`.",
"4.D (.cXY.i.L 9.5.G z.).bXA.C *.D (.cXY.i.L 9.5.G z.).bXA.C *.D (.cXY.i.L 9.5.G z.).bXA.C *.D (.cXY.i.L 9.5.G z.).bXZ.l ",
"zXh.C L.tXhX@X+X+X%XkXqXz.C H.dXh.C L.tXhX@X+X+X%XkXqXz.C H.dXh.C L.tXhX@X+X+X%XkXqXz.C H.dXh.C L.tXhX@X+X+X%XkXqXz.V M.",
"UXMXN.o.U L.2XJXGX*Xm.Y X.W.AXUXMXN.o.U L.2XJXGX*Xm.Y X.W.AXUXMXN.o.U L.2XJXGX*Xm.Y X.W.AXUXMXN.o.U L.2XJXGX*Xm.Y X.W.ZX",
"UXUXDXkXM.-.>.DXVX_ 6.L.xXHXUXUXUXDXkXM.-.>.DXVX_ 6.L.xXHXUXUXUXDXkXM.-.>.DXVX_ 6.L.xXHXUXUXUXDXkXM.-.>.DXVX_ 6.L.xXHXUX",
"UXUXUXUXSX@X*.SXBX` rXGXUXUXUXUXUXUXUXSX@X*.SXBX` rXGXUXUXUXUXUXUXUXSX@X*.SXBX` rXGXUXUXUXUXUXUXUXSX@X*.SXBX` rXGXUXUXUX",
"UXUXUXUXKX%X*.SXBX` iXPXIXUXUXUXUXUXUXKX%X*.SXBX` iXPXIXUXUXUXUXUXUXKX%X*.SXBX` iXPXIXUXUXUXUXUXUXKX%X*.SXBX` iXPXIXUXUX",
"UXUXUXIXAXl.>.FXVX` U.JXUXUXUXUXUXUXIXAXl.>.FXVX` U.JXUXUXUXUXUXUXIXAXl.>.FXVX` U.JXUXUXUXUXUXUXIXAXl.>.FXVX` U.JXUXUXUX",
"UXUXUXIX>Xm !.cXvXM.S iXUXUXUXUXUXUXIX>Xm !.cXvXM.S iXUXUXUXUXUXUXIX>Xm !.cXvXM.S iXUXUXUXUXUXUXIX>Xm !.cXvXM.S iXUXUXUX",
"UXUXUX6Xo.;.SX!.%XbX' 2.pXUXUXUXUXUX6Xo.;.SX!.%XbX' 2.pXUXUXUXUXUX6Xo.;.SX!.%XbX' 2.pXUXUXUXUXUX6Xo.;.SX!.%XbX' 2.pXUXUX",
"JXrXJ.`  .6XqX/ -.hX#X! $.I.kXJXrXJ.`  .6XqX/ -.hX#X! $.I.kXJXrXJ.`  .6XqX/ -.hX#X! $.I.kXJXrXJ.`  .6XqX/ -.hX#X! $.I.gX",
"j.#. .M.yX8X| ) Y ,.sX2Xv.! 3.j.#. .M.yX8X| ) Y ,.sX2Xv.! 3.j.#. .M.yX8X| ) Y ,.sX2Xv.! 3.j.#. .M.yX8X| ) Y ,.sX2Xv.! ,.",
")._.wXsX.X( ..6X%XW +.*XkX1X).)._.wXsX.X( ..6X%XW +.*XkX1X).)._.wXsX.X( ..6X%XW +.*XkX1X).)._.wXsX.X( ..6X%XW +.*XkX1X).",
"UXjXR. .-.3.tXUXIX<X;.@.;./.NXUXjXR. .-.3.tXUXIX<X;.@.;./.NXUXjXR. .-.3.tXUXIX<X;.@.;./.NXUXjXR. .-.3.tXUXIX<X;.@.;./.nX",
"JX/.| z.,XcXUXUXUXIXkX+Xl.) 1XGX/.| z.,XcXUXUXUXIXkX+Xl.) 1XGX/.| z.,XcXUXUXUXIXkX+Xl.) 1XGX/.| z.,XcXUXUXUXIXkX+Xl.) =X",
"HXU.e.nXPXUXUXUXUXUXUXLXcX+.=XDXU.e.nXPXUXUXUXUXUXUXLXcX+.=XDXU.e.nXPXUXUXUXUXUXUXLXcX+.=XDXU.e.nXPXUXUXUXUXUXUXLXcX+.OX",
"HXU.p.DXUXUXUXUXUXUXUXUXAX&.=XDXU.p.DXUXUXUXUXUXUXUXUXAX&.=XDXU.p.DXUXUXUXUXUXUXUXUXAX&.=XDXU.p.DXUXUXUXUXUXUXUXUXAX&.OX",
"KXQ.| uXPXUXUXUXUXUXUXLX<XW >XGXQ.| uXPXUXUXUXUXUXUXLX<XW >XGXQ.| uXPXUXUXUXUXUXUXLX<XW >XGXQ.| uXPXUXUXUXUXUXUXLX<XQ %X",
"xXqX^ V.DXUXUXUXUXUXUXBX8.$.hXvXqX^ V.DXUXUXUXUXUXUXBX8.$.hXvXqX^ V.DXUXUXUXUXUXUXBX8.$.hXvXqX^ V.DXUXUXUXUXUXUXBX8.%.gX",
"3.BXZ.K `.DXUXUXUXUXBXG.F {.cXa.VXZ.K `.DXUXUXUXUXBXG.F {.cXa.VXZ.K `.DXUXUXUXUXBXG.F {.cXa.VXZ.K `.DXUXUXUXUXBXG.F {.KX",
"l  XlXi.D G.$XNXnX|.b.Z Z.cXY.S  XlXi.D G.$XNXnX|.b.Z Z.cXY.S  XlXi.D G.$XNXnX|.b.Z Z.cXY.S  XlXi.D G.$XNXnX|.b.Z Z.cX.X",
"$.L /.nXF.>.Q B.n.L 9.~.bXD.A  .K /.nXF.>.Q B.n.L 9.~.bXD.A  .K /.nXF.>.Q B.n.L 9.~.bXD.A  .K /.nXF.>.Q B.n.L 9.~.bXD.n ",
"vXp.P D.7XnX^.I.I.].NX1Xk.K C.fXi.P D.7XnX^.I.I.].NX1Xk.K C.fXi.P D.7XnX^.I.I.].NX1Xk.K C.fXi.P D.7XnX^.I.I.].NX1Xk.J h.",
"UXmXb.2.^ C.,XUXUX+Xj.` <.P.SXUXmXb.2.^ C.,XUXUX+Xj.` <.P.SXUXmXb.2.^ C.,XUXUX+Xj.` <.P.SXUXmXb.2.^ C.,XUXUX+Xj.` <.I.AX",
"UXUXCXtXN.8.3.DXVX .i.J.aXFXUXUXUXCXtXN.8.3.DXVX .i.J.aXFXUXUXUXCXtXN.8.3.DXVX .i.J.aXFXUXUXUXCXtXN.8.3.DXVX .i.J.aXFXUX",
"UXUXUXUXSXXX&.SXNX) 0XGXUXUXUXUXUXUXUXSXXX&.SXNX) 0XGXUXUXUXUXUXUXUXSXXX&.SXNX) 0XGXUXUXUXUXUXUXUXSXXX&.SXNX) 0XGXUXUXUX",
"UXUXUXUXLX-X=.SXBX] dXIXUXUXUXUXUXUXUXLX-X=.SXBX] dXIXUXUXUXUXUXUXUXLX-X=.SXBX] dXIXUXUXUXUXUXUXUXLX-X=.SXBX] dXIXUXUXUX",
"UXUXUXIXBXt.%.SXBXQ Z.FXIXUXUXUXUXUXIXBXt.%.SXBXQ Z.FXIXUXUXUXUXUXIXBXt.%.SXBXQ Z.FXIXUXUXUXUXUXIXBXt.%.SXBXQ Z.FXIXUXUX",
"UXUXUXLXqXU }.ZXCXL.^ lXIXUXUXUXUXUXLXqXU }.ZXCXL.^ lXIXUXUXUXUXUXLXqXU }.ZXCXL.^ lXIXUXUXUXUXUXLXqXU }.ZXCXL.^ lXIXUXUX",
"UXIXHXeX[ { nXG.{.fXP <.gXJXIXUXIXHXeX[ { nXG.{.fXP <.gXJXIXUXIXHXeX[ { nXG.{.fXP <.gXJXIXUXIXHXeX[ { nXG.{.fXP <.gXJXIX",
"NXeX(.' ` rXrXO.9.fX>XI ;.`.dXMXeX(.' ` rXrXO.9.fX>XI ;.`.dXMXeX(.' ` rXrXO.9.fX>XI ;.`.dXMXeX(.' ` rXrXO.9.fX>XI ;.`.aX",
"C.;.^ f.aX6X@.W K 6.pX5Xu.I w.V.;.^ f.aX6X@.W K 6.pX5Xu.I w.V.;.^ f.aX6X@.W K 6.pX5Xu.I w.V.;.^ f.aX6X@.W K 6.pX5Xu.I 9.",
"I.R.eXaXoX] | 5X$XQ *.=XlX<XY.I.R.eXaXoX] | 5X$XQ *.=XlX<XY.I.R.eXaXoX] | 5X$XQ *.=XlX<XY.I.R.eXaXoX] | 5X$XQ *.=XlX<XY.",
"UXlX_.o.$.>.rXIXPX,X%.X.2.{.BXUXlX_.o.$.>.rXIXPX,X%.X.2.{.BXUXlX_.o.$.>.rXIXPX,X%.X.2.{.BXUXlX_.o.$.>.rXIXPX,X%.X.2.{.MX",
"JX~.( u.1XNXUXUXUXIXnXoXr.R ,XFX~.( u.1XNXUXUXUXIXnXoXr.R ,XFX~.( u.1XNXUXUXUXIXnXoXr.R ,XFX~.( u.1XNXUXUXUXIXnXoXr.T *X",
"HXU.i.FXUXUXUXUXUXUXUXUXAX%.=XDXU.i.FXUXUXUXUXUXUXUXUXAX%.=XDXU.i.FXUXUXUXUXUXUXUXUXAX%.=XDXU.i.FXUXUXUXUXUXUXUXUXAX%.OX",
"HXY.f.HXUXUXUXUXUXUXUXUXGX;.=XDXY.f.HXUXUXUXUXUXUXUXUXGX;.=XDXY.f.HXUXUXUXUXUXUXUXUXGX;.=XDXY.f.HXUXUXUXUXUXUXUXUXGX-.OX",
"HXY.E 8XLXUXUXUXUXUXUXKX$XF -XFXY.E 8XLXUXUXUXUXUXUXKX$XF -XFXY.E 8XLXUXUXUXUXUXUXKX$XF -XFXY.E 8XLXUXUXUXUXUXUXKX$XF +X",
"VXuX..L.HXIXUXUXUXIXIXDXa.4.zXCXuX..L.HXIXUXUXUXIXIXDXa.4.zXCXuX..L.HXIXUXUXUXIXIXDXa.4.zXCXuX..L.HXIXUXUXUXIXIXDXa.4.lX",
"=.mXN.Z `.DXPXIXIXLXVXD.B _.jXw.MXN.Z `.DXPXIXIXLXVXD.B _.jXw.MXN.Z `.DXPXIXIXLXVXD.B _.jXw.MXN.Z `.DXPXIXIXLXVXD.B _.GX",
"z .XzXf.C Z.&XCXBX Xk.V G.cXT.D .XzXf.C Z.&XCXBX Xk.V G.cXT.D .XzXf.C Z.&XCXBX Xk.V G.cXT.D .XzXf.C Z.&XCXBX Xk.V G.vXXX",
"-.J ).vXJ.4.Y d.i.H r.^.xXF.S O.K ).vXJ.4.Y d.i.H r.^.xXF.S O.K ).vXJ.4.Y d.i.H r.^.xXF.S O.K ).vXJ.4.Y d.i.H r.^.xXF.v ",
"xXd.D R.tXkX{.).).XXxXeXm.Z D.fXd.D R.tXkX{.).).XXxXeXm.Z D.fXd.D R.tXkX{.).).XXxXeXm.Z D.fXd.D R.tXkX{.).).XXxXeXm.Z v.",
"IXBXv.[ T ~.9XKXHX1XG.T ] Y.SXIXBXv.[ T ~.9XKXHX1XG.T ] Y.SXIXBXv.[ T ~.9XKXHX1XG.T ] Y.SXIXBXv.[ T ~.9XKXHX1XG.T ] T.SX",
"UXIXHXcXl...*.SXBX! =.D.NXKXIXUXIXHXcXl...*.SXBX! =.D.NXKXIXUXIXHXcXl...*.SXBX! =.D.NXKXIXUXIXHXcXl...*.SXBX! =.D.NXKXIX",
"UXUXUXUXUX;X=.SXBX' fXUXUXUXUXUXUXUXUXUX;X=.SXBX' fXUXUXUXUXUXUXUXUXUX;X=.SXBX' fXUXUXUXUXUXUXUXUXUX;X=.SXBX' fXUXUXUXUX",
"UXUXUXUXLX>X=.SXBX] hXIXUXUXUXUXUXUXUXLX>X=.SXBX] hXIXUXUXUXUXUXUXUXLX>X=.SXBX] hXIXUXUXUXUXUXUXUXLX>X=.SXBX] hXIXUXUXUX",
"UXUXUXIXBXr.$.DXBXE Z.GXIXUXUXUXUXUXIXBXr.$.DXBXE Z.GXIXUXUXUXUXUXIXBXr.$.DXBXE Z.GXIXUXUXUXUXUXIXBXr.$.DXBXE Z.GXIXUXUX",
"UXUXUXPX6XK [.NXNXJ.E gXIXUXUXUXUXUXPX6XK [.NXNXJ.E gXIXUXUXUXUXUXPX6XK [.NXNXJ.E gXIXUXUXUXUXUXPX6XK [.NXNXJ.E gXIXUXUX",
"UXUXIX7X{ $.BXU.oXzX^ >.sXIXUXUXUXIX7X{ $.BXU.oXzX^ >.sXIXUXUXUXIX7X{ $.BXU.oXzX^ >.sXIXUXUXUXIX7X{ $.BXU.oXzX^ >.sXIXUX",
"KXyXS.( O.8XeX/ -.hX&X/ O.K.zXJXyXS.( O.8XeX/ -.hX&X/ O.K.zXJXyXS.( O.8XeX/ -.hX&X/ O.K.zXJXyXS.( O.8XeX/ -.hX&X/ O.K.jX",
"9.]  .Z.eXeX{ _ Y :.jX<XN.Q #.9.]  .Z.eXeX{ _ Y :.jX<XN.Q #.9.]  .Z.eXeX{ _ Y :.jX<XN.Q #.9.]  .Z.eXeX{ _ Y :.jX<XN.Q o.",
"[.].7XAXxX( Y 4X#Xm :.VXZX>X].[.].7XAXxX( Y 4X#Xm :.VXZX>X].[.].7XAXxX( Y 4X#Xm :.VXZX>X].[.].7XAXxX( Y 4X#Xm :.VXZX>X]."
};
