/* XPM */
static char *f280adc08ed44380964f9be5c9313feeOzfAvnqSFk33FL46[] = {
/* columns rows colors chars-per-pixel */
"60 60 256 2 ",
"   c black",
".  c #010101",
"X  c #020202",
"o  c gray1",
"O  c #040404",
"+  c gray2",
"@  c #060606",
"#  c #070707",
"$  c gray3",
"%  c #090909",
"&  c gray4",
"*  c #0B0B0B",
"=  c #0C0C0C",
"-  c gray5",
";  c #0E0E0E",
":  c gray6",
">  c #101010",
",  c #111111",
"<  c gray7",
"1  c #131313",
"2  c gray8",
"3  c #151515",
"4  c #161616",
"5  c gray9",
"6  c #181818",
"7  c #191919",
"8  c gray10",
"9  c #1B1B1B",
"0  c gray11",
"q  c #1D1D1D",
"w  c #1E1E1E",
"e  c gray12",
"r  c #202020",
"t  c gray13",
"y  c #222222",
"u  c #232323",
"i  c gray14",
"p  c #252525",
"a  c gray15",
"s  c #272727",
"d  c #282828",
"f  c gray16",
"g  c #2A2A2A",
"h  c gray17",
"j  c #2C2C2C",
"k  c #2D2D2D",
"l  c gray18",
"z  c #2F2F2F",
"x  c gray19",
"c  c #313131",
"v  c #323232",
"b  c gray20",
"n  c #343434",
"m  c #353535",
"M  c gray21",
"N  c #373737",
"B  c gray22",
"V  c #393939",
"C  c #3A3A3A",
"Z  c gray23",
"A  c #3C3C3C",
"S  c gray24",
"D  c #3E3E3E",
"F  c #3F3F3F",
"G  c gray25",
"H  c #414141",
"J  c gray26",
"K  c #434343",
"L  c #444444",
"P  c gray27",
"I  c #464646",
"U  c gray28",
"Y  c #484848",
"T  c #494949",
"R  c gray29",
"E  c #4B4B4B",
"W  c #4C4C4C",
"Q  c gray30",
"!  c #4E4E4E",
"~  c gray31",
"^  c #505050",
"/  c #515151",
"(  c gray32",
")  c #535353",
"_  c gray33",
"`  c #555555",
"'  c #565656",
"]  c gray34",
"[  c #585858",
"{  c gray35",
"}  c #5A5A5A",
"|  c #5B5B5B",
" . c gray36",
".. c #5D5D5D",
"X. c gray37",
"o. c #5F5F5F",
"O. c #606060",
"+. c gray38",
"@. c #626262",
"#. c gray39",
"$. c #646464",
"%. c #656565",
"&. c gray40",
"*. c #676767",
"=. c #686868",
"-. c DimGray",
";. c #6A6A6A",
":. c gray42",
">. c #6C6C6C",
",. c #6D6D6D",
"<. c gray43",
"1. c #6F6F6F",
"2. c gray44",
"3. c #717171",
"4. c #727272",
"5. c gray45",
"6. c #747474",
"7. c gray46",
"8. c #767676",
"9. c #777777",
"0. c gray47",
"q. c #797979",
"w. c gray48",
"e. c #7B7B7B",
"r. c #7C7C7C",
"t. c gray49",
"y. c #7E7E7E",
"u. c gray50",
"i. c #808080",
"p. c #818181",
"a. c gray51",
"s. c #838383",
"d. c #848484",
"f. c gray52",
"g. c #868686",
"h. c gray53",
"j. c #888888",
"k. c #898989",
"l. c gray54",
"z. c #8B8B8B",
"x. c gray55",
"c. c #8D8D8D",
"v. c #8E8E8E",
"b. c gray56",
"n. c #909090",
"m. c gray57",
"M. c #929292",
"N. c #939393",
"B. c gray58",
"V. c #959595",
"C. c gray59",
"Z. c #979797",
"A. c #989898",
"S. c gray60",
"D. c #9A9A9A",
"F. c #9B9B9B",
"G. c gray61",
"H. c #9D9D9D",
"J. c gray62",
"K. c #9F9F9F",
"L. c #A0A0A0",
"P. c gray63",
"I. c #A2A2A2",
"U. c gray64",
"Y. c #A4A4A4",
"T. c #A5A5A5",
"R. c gray65",
"E. c #A7A7A7",
"W. c gray66",
"Q. c #A9A9A9",
"!. c #AAAAAA",
"~. c gray67",
"^. c #ACACAC",
"/. c gray68",
"(. c #AEAEAE",
"). c #AFAFAF",
"_. c gray69",
"`. c #B1B1B1",
"'. c #B2B2B2",
"]. c gray70",
"[. c #B4B4B4",
"{. c gray71",
"}. c #B6B6B6",
"|. c #B7B7B7",
" X c gray72",
".X c #B9B9B9",
"XX c gray73",
"oX c #BBBBBB",
"OX c #BCBCBC",
"+X c gray74",
"@X c gray",
"#X c gray75",
"$X c #C0C0C0",
"%X c #C1C1C1",
"&X c gray76",
"*X c #C3C3C3",
"=X c gray77",
"-X c #C5C5C5",
";X c #C6C6C6",
":X c gray78",
">X c #C8C8C8",
",X c gray79",
"<X c #CACACA",
"1X c #CBCBCB",
"2X c gray80",
"3X c #CDCDCD",
"4X c #CECECE",
"5X c gray81",
"6X c #D0D0D0",
"7X c gray82",
"8X c #D2D2D2",
"9X c LightGray",
"0X c gray83",
"qX c #D5D5D5",
"wX c gray84",
"eX c #D7D7D7",
"rX c #D8D8D8",
"tX c gray85",
"yX c #DADADA",
"uX c gray86",
"iX c gainsboro",
"pX c #DDDDDD",
"aX c gray87",
"sX c #DFDFDF",
"dX c gray88",
"fX c #E1E1E1",
"gX c #E2E2E2",
"hX c gray89",
"jX c #E4E4E4",
"kX c gray90",
"lX c #E6E6E6",
"zX c #E7E7E7",
"xX c gray91",
"cX c #E9E9E9",
"vX c #EAEAEA",
"bX c gray92",
"nX c #ECECEC",
"mX c gray93",
"MX c #EEEEEE",
"NX c #EFEFEF",
"BX c gray94",
"VX c #F1F1F1",
"CX c gray95",
"ZX c #F3F3F3",
"AX c #F4F4F4",
"SX c gray96",
"DX c #F6F6F6",
"FX c gray97",
"GX c #F8F8F8",
"HX c #F9F9F9",
"JX c gray98",
"KX c #FBFBFB",
"LX c gray99",
"PX c #FDFDFD",
"IX c #FEFEFE",
"UX c white",
/* pixels */
"1.0.M ] a.p.y.l #.2.1.0.M { L 5 ;.z #.2.1.0.M ] a.p.p.%.$.2.1.0.M ] a.p.y.l #.2.1.0.M { L 5 ;.z #.2.1.0.M ] a.p.p.%.%.2.",
"t e.4.) :.~ 0.V E.B r r.4.) =.J q.V E.B r r.4.) :.~ 0.B E.B r r.4.) :.~ 0.V E.B r r.4.) =.J q.V E.B r r.4.) :.~ 0.B R.Z ",
"7 G.T ~ X.S.L W 5.,.3 G.T ~ X.D.L W 5.,.3 G.T ~ X.S.L W 5.,.3 G.T ~ X.S.L W 5.,.3 G.T ~ X.D.L W 5.,.3 G.T ~ X.S.L W 4.r.",
"u.*...J C.c.*...J C.c.*...J C.c.*...J C.c.*...J C.c.*...J C.c.*...J C.c.*...J C.c.*...J C.c.*...J C.c.*...J C.c.*...H W.",
"F.L W 5.,.3 G.T ~ X.S.L W 5.,.3 G.T ~ X.S.L W 5.,.3 G.T ~ X.D.L W 5.,.3 G.T ~ X.S.L W 5.,.3 G.T ~ X.S.L W 5.,.3 G.T ^ ^ ",
"G q.V E.B e r.4.( :.~ 0.V E.B e r.4.( :.~ 0.V E.B e r.4.) -.J q.V E.B e r.4.( :.~ 0.V E.B e r.4.( :.~ 0.V E.B e r.4.( 6.",
"2 ..V *.4.4.w.F  .u.6.p.B *.5.4.w.D X.i.6.u.B *.4.4.w.G [ A 2 X.V *.4.4.w.F  .u.6.p.B *.5.4.w.D X.i.6.u.B *.4.4.w.G ] L ",
"  V / G ~ ~ W m 6.I , F / @.O.O.O.+.J z 2 2./ G ~ ~ W M +.,   V / G ~ ~ W m 6.I , F / @.O.O.O.+.J z 2 2./ G ~ ~ W M O.2 ",
"c q.B G.*.@.x.-.) V v z * = * * * * , P 3 %.V G.*.@.x.-.) &.m w.B G.*.@.x.-.) V v z * = * * * * , P 3 %.V G.*.@.x.-.( 7.",
"+.@.B v.S   h.( [ g &.Y.r.@.@.@.@.@.N.E.y [ V v.S   h.( ' [  .#.B v.S   h.( [ g &.Y.r.@.@.@.@.@.N.E.y [ V v.S   h.( ' / ",
"Q.J | } M.W n.] A . 4.C e r r r r r 6 0.h * o.} M.W n.] S r.[.H | } M.W n.] A . 4.C e r r r r r 6 0.h * o.} M.W n.] D t.",
"Y n.] S r.[.H o.t p H.4               ` a.O / F r.[.H | } M.W n.] S r.[.H o.t p H.4               ` a.O / F r.[.H | } E.",
"X g.( ' ]  .} d X s._                 = Z.B O E ] } @.B v.S   h.( ' ]  .} d X s._                 = Z.B O E ] } @.B c.P ",
"@.x.-./ u.+.r O ,.n.=                   S Y.z o J 1.t.B G.*.@.x.-./ u.+.r O ,.n.=                   S Y.z o J 1.t.B G.*.",
"U W m 4.8.8   <.I.:                       P }.p   P a.^ G ~ ~ W m 4.8.8   <.I.:                       P }.p   P a.^ G ] ",
"1.w.F  .i.I O c I.E X                   , h.e.* 6 =.u.B *.4.4.w.F  .i.I O c I.E X                   , h.e.* 6 =.u.B *.7.",
"r e.4.( :.^ E O i P.s                 X 2.7.o r } / 0.V E.B e r.4.( :.^ E O i P.s                 X 2.7.o r } / 0.V R.Z ",
"7 G.T ~ X.S.I ^ & ) s.O               d J.3 s ) o.S.L W 5.,.3 G.T ~ X.S.I ^ & ) s.O               d J.3 s ) o.S.L W 4.r.",
"u.*...J C.c.*.o.k % N.d               7._   +.J C.c.*...J C.c.*...J C.c.*.o.k % N.d               7._   +.J C.c.*...H W.",
"D.L W 5.,.3 G.T ) > @.<.:.#.#.#.#.#.&.h.w x ! 5.,.3 G.T ~ X.S.L W 5.,.3 G.T ) > @.<.:.#.#.#.#.#.&.h.w x ! 5.,.3 G.T ^ ^ ",
"4.0.V E.B e r.4._ B  .g.B w w w w w | B.t &.C E.B e r.4.( 8.1.0.V E.B e r.4._ B  .g.B w w w w w | B.t &.C E.B e r.4.( 6.",
"i ..V *.4.4.w.F X.B & > p G D D D F ; 2 % *.C *.4.4.w.G ] G u ..V *.4.4.w.F X.B & > p G D D D F ; 2 % *.C *.4.4.w.G ] L ",
"  V / G ~ ~ W m 5.&.P 5./ _ @.@.O.U &.$.P r.^ G ~ ~ W M +.,   V / G ~ ~ W m 5.&.P 5./ _ @.@.O.U &.$.P r.^ G ~ ~ W M O.2 ",
"c q.B G.*.@.x.-./ i.4.y.B F.&.+.z.=.( i.4.t.B G.*.@.x.-.) &.m w.B G.*.@.x.-./ i.4.y.B F.&.+.z.=.( i.4.t.B G.*.@.x.-.( 7.",
"+.@.B v.S   h.( ' ] } @.B v.S   h.( ' ] } @.B v.S   h.( ' [  .#.B v.S   h.( ' ] } @.B v.S   h.( ' ] } @.B v.S   h.( ' / ",
"Q.J | } M.W n.] S r.[.H | } M.W n.] S r.[.H | } M.W n.] S r.[.H | } M.W n.] S r.[.H | } M.W n.] S r.[.H | } M.W n.] D t.",
"Y n.] S r.[.H | } M.W n.] S r.[.H | } M.W n.] S r.[.H | } M.W n.] S r.[.H | } M.W n.] S r.[.H | } M.W n.] S r.[.H | } E.",
"X g.( ' ] } @.B v.S   h.( ' [  .#.B v.S   h.( ' ] } @.B v.S   h.( ' ] } @.B v.S   h.( ' [  .#.B v.S   h.( ' ] } @.B c.P ",
"@.x.-./ u.3.t.B G.*.@.x.-.) &.m w.B G.*.@.x.-./ u.3.t.N G.*.@.x.-./ u.3.t.B G.*.@.x.-.) &.m w.B G.*.@.x.-./ u.3.t.N G.*.",
"U W m 4.5.) p.^ G ~ ~ W M +.,   V / G ~ ~ W m 4.5.) a.O.H ~ ~ W m 4.5.) p.^ G ~ ~ W M +.,   V / G ~ ~ W m 4.5.) a.O.G ] ",
"1.w.F  .y.4.y.B *.4.4.w.G [ A 2 X.V *.4.4.w.F  .y.4.p.-.-.4.4.w.F  .y.4.y.B *.4.4.w.G [ A 2 X.V *.4.4.w.F  .y.4.p.-.-.7.",
"r e.4.( :.~ 0.V E.B e r.4.) -.J q.V E.B e r.4.( :.~ 9.N E.B e r.4.( :.~ 0.V E.B e r.4.) -.J q.V E.B e r.4.( :.~ 9.N R.Z ",
"7 G.T ~ X.S.L W 5.,.3 G.T ~ X.D.L W 5.,.3 G.T ~ X.S.L W 5.,.3 G.T ~ X.S.L W 5.,.3 G.T ~ X.D.L W 5.,.3 G.T ~ X.S.L W 4.r.",
"u.*...J C.c.*...J C.c.*...J C.c.*...J C.c.*...J C.c.*...J C.c.*...J C.c.*...J C.c.*...J C.c.*...J C.c.*...J C.c.*...H W.",
"F.L W 5.,.3 G.T ~ X.S.L W 5.,.3 G.T ~ X.S.L W 5.,.3 G.T ~ X.D.L W 5.,.3 G.T ~ X.S.L W 5.,.3 G.T ~ X.S.L W 5.,.3 G.T ^ ^ ",
"G q.V E.B e r.4.( :.~ 0.V E.B e r.4.( :.~ 0.V E.B e r.4.) -.J q.V E.B e r.4.( :.~ 0.V E.B e r.4.( :.~ 0.V E.B e r.4.( 6.",
"2 ..V *.4.4.w.F  .u.6.p.B *.5.4.w.D X.i.6.u.B *.4.4.w.G [ A 2 X.V *.4.4.w.F  .u.6.p.B *.5.4.w.D X.i.6.u.B *.4.4.w.G ] L ",
"  V / G ~ ~ W m 6.I , F / @.O.O.O.+.J z 2 2./ G ~ ~ W M +.,   V / G ~ ~ W m 6.I , F / @.O.O.O.+.J z 2 2./ G ~ ~ W M O.2 ",
"c q.B G.*.@.x.-.) V v z * = * * * * , P 3 %.V G.*.@.x.-.) &.m w.B G.*.@.x.-.) V v z * = * * * * , P 3 %.V G.*.@.x.-.( 7.",
"+.@.B v.S   h.( [ g &.Y.r.@.@.@.@.@.N.E.y [ V v.S   h.( ' [  .#.B v.S   h.( [ g &.Y.r.@.@.@.@.@.N.E.y [ V v.S   h.( ' / ",
"Q.J | } M.W n.] A . 4.C e r r r r r 6 0.h * o.} M.W n.] S r.[.H | } M.W n.] A . 4.C e r r r r r 6 0.h * o.} M.W n.] D t.",
"Y n.] S r.[.H o.t p H.4               ` a.O / F r.[.H | } M.W n.] S r.[.H o.t p H.4               ` a.O / F r.[.H | } E.",
"X g.( ' ]  .} d X s._                 = Z.B O E ] } @.B v.S   h.( ' ]  .} d X s._                 = Z.B O E ] } @.B c.P ",
"@.x.-./ u.+.r O ,.n.=                   S Y.z o J 1.t.B G.*.@.x.-./ u.+.r O ,.n.=                   S Y.z o J 1.t.B G.*.",
"U W m 4.8.8   <.I.:                       P }.p   P a.^ G ~ ~ W m 4.8.8   <.I.:                       P }.p   P a.^ G ] ",
"1.w.F  .i.I O c I.E X                   , h.e.* 6 =.u.B *.4.4.w.F  .i.I O c I.E X                   , h.e.* 6 =.u.B *.7.",
"r e.4.( :.^ E O i P.s                 X 2.7.o r } / 0.V E.B e r.4.( :.^ E O i P.s                 X 2.7.o r } / 0.V R.Z ",
"7 G.T ~ X.S.I ^ & ) s.O               d J.3 s ) o.S.L W 5.,.3 G.T ~ X.S.I ^ & ) s.O               d J.3 s ) o.S.L W 4.r.",
"u.*...J C.c.*.o.k % N.d               7._   +.J C.c.*...J C.c.*...J C.c.*.o.k % N.d               7._   +.J C.c.*...H W.",
"D.L W 5.,.3 G.T ) > @.<.:.#.#.#.#.#.&.h.w x ! 5.,.3 G.T ~ X.S.L W 5.,.3 G.T ) > @.<.:.#.#.#.#.#.&.h.w x ! 5.,.3 G.T ^ ^ ",
"4.0.V E.B e r.4._ B  .g.B w w w w w | B.t &.C E.B e r.4.( 8.1.0.V E.B e r.4._ B  .g.B w w w w w | B.t &.C E.B e r.4.( 6.",
"i ..V *.4.4.w.F X.B & > p G D D D F ; 2 % *.C *.4.4.w.G ] G u ..V *.4.4.w.F X.B & > p G D D D F ; 2 % *.C *.4.4.w.G ] L ",
"  V / G ~ ~ W m 5.&.P 5./ _ @.@.O.U &.$.P r.^ G ~ ~ W M +.,   V / G ~ ~ W m 5.&.P 5./ _ @.@.O.U &.$.P r.^ G ~ ~ W M O.2 ",
"c q.B G.*.@.x.-./ i.4.y.B F.&.+.z.=.( i.4.t.B G.*.@.x.-.) &.m w.B G.*.@.x.-./ i.4.y.B F.&.+.z.=.( i.4.t.B G.*.@.x.-.( 7.",
"+.@.B v.S   h.( ' ] } @.B v.S   h.( ' ] } @.B v.S   h.( ' [  .#.B v.S   h.( ' ] } @.B v.S   h.( ' ] } @.B v.S   h.( ' / ",
"Q.J | } M.W n.] S r.[.H | } M.W n.] S r.[.H | } M.W n.] S r.[.H | } M.W n.] S r.[.H | } M.W n.] S r.[.H | } M.W n.] D t.",
"Y n.] S r.[.H | } M.W n.] S r.[.H | } M.W n.] S r.[.H | } M.W n.] S r.[.H | } M.W n.] S r.[.H | } M.W n.] S r.[.H | } E.",
"X g.( ' ] } @.B v.S   h.( ' [  .#.B v.S   h.( ' ] } @.B v.S   h.( ' ] } @.B v.S   h.( ' [  .#.B v.S   h.( ' ] } @.B c.P ",
"+.z.=./ u.3.t.B F.&.+.z.=.) %.m q.B F.&.+.z.=./ u.3.t.B F.&.+.z.=./ u.3.t.B F.&.+.z.=.) %.m q.B F.&.+.z.=./ u.3.t.B D.*.",
") } D 3.4.! p.( W  . .} F ..1   N ) W  . .} D 3.4.! p.( W  . .} D 3.4.! p.( W  . .} F ..1   N ) W  . .} D 3.4.! p.( W %."
};
