/* XPM */
static char *_7e18190c2394f7faffed70aee5fa6c95zbZFSDbTIOuyM9f[] = {
/* columns rows colors chars-per-pixel */
"60 60 10 1 ",
"  c None",
". c black",
"X c #05090F",
"o c #0C0E17",
"O c #0F1A25",
"+ c #1D303B",
"@ c #552F87",
"# c #9F51F7",
"$ c #DC8BF7",
"% c #F7CEF7",
/* pixels */
"                                                            ",
"                                                            ",
"                                                            ",
"                                                            ",
"                                                            ",
"                                                            ",
"                                                            ",
"                                                            ",
"                                                            ",
"                                                            ",
"                                                            ",
"                                                            ",
"                                                            ",
"                                                            ",
"                                                            ",
"                                                            ",
"                                                            ",
"                                                            ",
"                                 X    X                     ",
"                                 OOO  XO                    ",
"                                  +OO  oO                   ",
"                                   +O  oO                   ",
"                                   +O OoO                   ",
"                         OOOOO++O  OO+OO                    ",
"                      OOO+O+++O++OXOO++O                    ",
"                    OOO+O+OOOO+O++XOO#+#                    ",
"                   OO++OOOO+++O+OOXOO++O                    ",
"                  +O+OO    +++O+OXOXO++                     ",
"                 OOOO       O+OOXOXXX                       ",
"                #+OO       ++O++XOOOO                       ",
"              #%%++O       OO+OXOXOOO                       ",
"             #$%#%#        ++OX   OOO.  XO                  ",
"            #$%#%%        ###++@   OX..X.O                  ",
"           #$%#%          XXX#@X$  ..XX..                   ",
"          #$%#%          +OOOXXX$OOO ...                    ",
"         #$%#%          ++OOXOXO$OO.XXX$%                   ",
"        #$%#%          $$XOOXOX$%OO...$O$%                  ",
"       #$%#%            $XOXXO $%O.....X $                  ",
"       $%%%           OXX$++    $$$.X.@# $                  ",
"       #%%        %$ OOOX+$O       XXX.@$%                  ",
"       %#        %$$X#@XXOO$       $.. $%                   ",
"                 %$XX@     $      $ X $%                    ",
"                  %OX   $  %       $.                       ",
"                 O$O     $$%        XX                      ",
"                 +X$      %%                                ",
"                 OO$                                        ",
"                                                            ",
"                                                            ",
"                                                            ",
"                                                            ",
"                                                            ",
"                                                            ",
"                                                            ",
"                                                            ",
"                                                            ",
"                                                            ",
"                                                            ",
"                                                            ",
"                                                            ",
"                                                            "
};
