/* XPM */
static char *_7d954ea70774529b10c21daff55d2b1dpfzKtiaNZpDY9yq[] = {
/* columns rows colors chars-per-pixel */
"60 60 2 1 ",
"  c black",
". c white",
/* pixels */
"............................................................",
"............................................................",
".... .. . .. ....             .... .. . .. ....             ",
"...   .. ..   ...             ...   .. ..   ...             ",
"..     ...     ..             ..     ...     ..             ",
"..     . .     ..             ..     . .     ..             ",
"..             ..             ..             ..             ",
"...           ...             ...           ...             ",
".....       .....             .....       .....             ",
"....         ....             ....         ....             ",
"...           ...             ...           ...             ",
"...           ...             ...           ...             ",
"...    . .    ...             ...    . .    ...             ",
"...   .....   ...             ...   .....   ...             ",
".... ....... ....             .... ....... ....             ",
"............................................................",
"............................................................",
"..             .... .. . .. ....             .... .. . .. ..",
"..             ...   .. ..   ...             ...   .. ..   .",
"..             ..     ...     ..             ..     ...     ",
"..             ..     . .     ..             ..     . .     ",
"..             ..             ..             ..             ",
"..             ...           ...             ...           .",
"..             .....       .....             .....       ...",
"..             ....         ....             ....         ..",
"..             ...           ...             ...           .",
"..             ...           ...             ...           .",
"..             ...    . .    ...             ...    . .    .",
"..             ...   .....   ...             ...   .....   .",
"..             .... ....... ....             .... ....... ..",
"............................................................",
"............................................................",
".... .. . .. ....             .... .. . .. ....             ",
"...   .. ..   ...             ...   .. ..   ...             ",
"..     ...     ..             ..     ...     ..             ",
"..     . .     ..             ..     . .     ..             ",
"..             ..             ..             ..             ",
"...           ...             ...           ...             ",
".....       .....             .....       .....             ",
"....         ....             ....         ....             ",
"...           ...             ...           ...             ",
"...           ...             ...           ...             ",
"...    . .    ...             ...    . .    ...             ",
"...   .....   ...             ...   .....   ...             ",
".... ....... ....             .... ....... ....             ",
"............................................................",
"............................................................",
"..             .... .. . .. ....             .... .. . .. ..",
"..             ...   .. ..   ...             ...   .. ..   .",
"..             ..     ...     ..             ..     ...     ",
"..             ..     . .     ..             ..     . .     ",
"..             ..             ..             ..             ",
"..             ...           ...             ...           .",
"..             .....       .....             .....       ...",
"..             ....         ....             ....         ..",
"..             ...           ...             ...           .",
"..             ...           ...             ...           .",
"..             ...    . .    ...             ...    . .    .",
"..             ...   .....   ...             ...   .....   .",
"..             .... ....... ....             .... ....... .."
};
